<mxfile host="65bd71144e">
    <diagram id="8GUFTf_97pqB37K5wsXq" name="Page-1">
        <mxGraphModel dx="1021" dy="826" grid="1" gridSize="10" guides="1" tooltips="1" connect="1" arrows="1" fold="1" page="1" pageScale="1" pageWidth="827" pageHeight="1169" background="none" math="0" shadow="0">
            <root>
                <mxCell id="0"/>
                <mxCell id="1" parent="0"/>
                <mxCell id="2" value="Box" style="rounded=0;whiteSpace=wrap;html=1;sketch=1;curveFitting=1;jiggle=2;" parent="1" vertex="1">
                    <mxGeometry x="60" y="90" width="120" height="60" as="geometry"/>
                </mxCell>
                <mxCell id="3" value="" style="shape=cylinder3;whiteSpace=wrap;html=1;boundedLbl=1;backgroundOutline=1;size=15;sketch=1;curveFitting=1;jiggle=2;" parent="1" vertex="1">
                    <mxGeometry x="430" y="160" width="60" height="80" as="geometry"/>
                </mxCell>
                <mxCell id="4" value="" style="image;aspect=fixed;html=1;points=[];align=center;fontSize=12;image=img/lib/azure2/general/Management_Groups.svg;sketch=1;curveFitting=1;jiggle=2;" parent="1" vertex="1">
                    <mxGeometry x="380" y="390" width="66" height="64" as="geometry"/>
                </mxCell>
                <mxCell id="5" value="" style="image;sketch=1;aspect=fixed;html=1;points=[];align=center;fontSize=12;image=img/lib/mscae/Key_Vaults.svg;curveFitting=1;jiggle=2;" parent="1" vertex="1">
                    <mxGeometry x="170" y="404" width="48" height="50" as="geometry"/>
                </mxCell>
                <mxCell id="6" style="edgeStyle=elbowEdgeStyle;html=1;exitX=1;exitY=0.5;exitDx=0;exitDy=0;entryX=0;entryY=0.5;entryDx=0;entryDy=0;entryPerimeter=0;flowAnimation=1;sketch=1;curveFitting=1;jiggle=2;" parent="1" source="2" target="3" edge="1">
                    <mxGeometry relative="1" as="geometry"/>
                </mxCell>
                <mxCell id="7" style="edgeStyle=orthogonalEdgeStyle;html=1;exitX=0.5;exitY=1;exitDx=0;exitDy=0;exitPerimeter=0;entryX=0.561;entryY=0;entryDx=0;entryDy=0;entryPerimeter=0;flowAnimation=1;sketch=1;curveFitting=1;jiggle=2;" parent="1" source="3" target="4" edge="1">
                    <mxGeometry relative="1" as="geometry"/>
                </mxCell>
                <mxCell id="8" style="edgeStyle=orthogonalEdgeStyle;html=1;exitX=0.5;exitY=1;exitDx=0;exitDy=0;exitPerimeter=0;entryX=0.542;entryY=-0.02;entryDx=0;entryDy=0;entryPerimeter=0;flowAnimation=1;sketch=1;curveFitting=1;jiggle=2;" parent="1" source="3" target="5" edge="1">
                    <mxGeometry relative="1" as="geometry">
                        <Array as="points">
                            <mxPoint x="460" y="290"/>
                            <mxPoint x="196" y="290"/>
                        </Array>
                    </mxGeometry>
                </mxCell>
                <mxCell id="9" value="" style="triangle;whiteSpace=wrap;html=1;sketch=1;curveFitting=1;jiggle=2;" vertex="1" parent="1">
                    <mxGeometry x="70" y="230" width="60" height="80" as="geometry"/>
                </mxCell>
            </root>
        </mxGraphModel>
    </diagram>
</mxfile>